<svg width="529" height="128" viewBox="0 0 529 128" fill="none" xmlns="http://www.w3.org/2000/svg">
<path d="M116.118 31.826L109.194 28.0974L104.933 25.4342L101.204 23.3036L96.9429 20.6403L66.5816 3.06276C65.5163 2.5301 63.3857 2.5301 62.3204 3.06276C60.7225 3.59541 60.1898 5.19336 60.1898 6.79132V28.6301L41.547 17.977C40.4816 17.4444 38.8837 17.4444 37.2857 17.977C36.7531 17.977 36.2204 18.5097 36.2204 19.0423C35.6878 19.575 35.1551 20.6403 35.1551 21.7056V37.1525L43.6776 41.9464V29.1628L84.6919 53.1321V65.9158L93.2143 70.7097V50.4689C93.2143 48.8709 92.149 47.2729 91.0837 46.7403L68.1796 33.424V13.7158L96.4102 30.2281L100.671 32.8913L104.4 35.0219L108.661 37.6852H109.194V85.0913L17.0449 31.2934C15.447 30.7607 13.849 30.7607 12.7837 31.2934C11.1857 31.826 10.6531 33.424 10.6531 35.0219V92.0158C10.6531 93.6138 11.1857 94.6791 12.7837 95.7444L62.3204 124.508C62.8531 125.04 63.9184 125.04 64.451 125.04C64.9837 125.04 66.049 125.04 66.5816 124.508C67.647 123.975 68.7123 122.377 68.7123 120.779V100.538L86.8225 111.191C87.8878 111.724 88.4204 111.724 88.9531 111.724C89.4857 111.724 90.551 111.724 91.0837 111.191C92.6816 110.659 93.2143 109.061 93.2143 107.463V90.4179L84.6919 85.624V100.538L43.6776 76.5689V61.6546L35.1551 56.8607V79.2321C35.1551 80.8301 36.2204 81.8954 37.2857 82.9607L60.1898 96.277V113.855L19.1755 89.8852V42.4791L111.857 96.277C112.39 96.8097 113.455 96.8097 113.988 96.8097C114.52 96.8097 115.586 96.8097 116.118 96.277C117.716 95.7444 118.249 94.1464 118.249 92.5485V35.5546C118.249 33.9566 117.184 32.8913 116.118 31.826Z" fill="url(#paint0_linear_15_20)"/>
<path d="M156.96 77.32V45H163.36V55H176.56V61H163.36V76.68C163.36 82.6533 165.493 85.64 169.76 85.64C171.84 85.64 173.733 84.9733 175.44 83.64L177.44 88.6C174.933 90.6267 171.867 91.64 168.24 91.64C164.347 91.64 161.493 90.4667 159.68 88.12C157.867 85.7733 156.96 82.1733 156.96 77.32Z" fill="#292840"/>
<path d="M209.334 55H216.614L202.214 91C199.601 97.3467 197.334 101.56 195.414 103.64C193.388 105.88 191.068 107 188.454 107C186.108 107 183.841 106.253 181.654 104.76L183.734 99.88C185.441 100.68 186.774 101.08 187.734 101.08C189.228 101.08 190.561 100.44 191.734 99.16C192.961 97.88 194.188 95.8 195.414 92.92L196.214 91L178.934 55H186.614L197.174 77.88C197.388 78.2533 198.108 80.0667 199.334 83.32C199.814 81.56 200.374 79.72 201.014 77.8L209.334 55Z" fill="#292840"/>
<path d="M227.991 107H221.591V55H227.991V59.24C229.271 57.7467 231.031 56.5467 233.271 55.64C235.511 54.68 237.831 54.2 240.231 54.2C245.351 54.2 249.378 55.9067 252.311 59.32C255.351 62.68 256.871 67.0533 256.871 72.44C256.871 77.9333 255.138 82.5467 251.671 86.28C248.258 89.96 243.751 91.8 238.151 91.8C233.831 91.8 230.445 90.9733 227.991 89.32V107ZM238.391 60.2C234.125 60.2 230.658 61.8533 227.991 65.16V83C230.818 84.8667 234.018 85.8 237.591 85.8C241.378 85.8 244.391 84.6 246.631 82.2C248.925 79.7467 250.071 76.5733 250.071 72.68C250.071 68.8933 249.031 65.88 246.951 63.64C244.871 61.3467 242.018 60.2 238.391 60.2Z" fill="#292840"/>
<path d="M292.844 82.04L294.844 87.08C291.378 90.2267 286.871 91.8 281.324 91.8C275.458 91.8 270.791 90.0933 267.324 86.68C263.804 83.2667 262.044 78.7067 262.044 73C262.044 67.6133 263.698 63.1333 267.004 59.56C270.258 55.9867 274.791 54.2 280.604 54.2C285.404 54.2 289.378 55.7467 292.524 58.84C295.724 61.88 297.324 65.8267 297.324 70.68C297.324 72.2267 297.191 73.6667 296.924 75H269.244C269.511 78.36 270.764 81 273.004 82.92C275.298 84.84 278.231 85.8 281.804 85.8C286.498 85.8 290.178 84.5467 292.844 82.04ZM280.284 60.2C277.138 60.2 274.524 61.08 272.444 62.84C270.418 64.6 269.218 66.92 268.844 69.8H290.684C290.524 66.8133 289.511 64.4667 287.644 62.76C285.831 61.0533 283.378 60.2 280.284 60.2Z" fill="#292840"/>
<path d="M337.207 91H330.807V86.44C327.607 89.9067 323.794 91.64 319.367 91.64C314.087 91.64 309.874 89.96 306.727 86.6C303.58 83.1867 302.007 78.7333 302.007 73.24C302.007 67.64 303.847 63.08 307.527 59.56C311.26 55.9867 315.98 54.2 321.687 54.2C325.314 54.2 328.354 55.0533 330.807 56.76V35H337.207V91ZM320.567 85.64C324.514 85.64 327.927 84.04 330.807 80.84V63C327.82 61.1333 324.86 60.2 321.927 60.2C318.247 60.2 315.127 61.4 312.567 63.8C310.06 66.1467 308.807 69.24 308.807 73.08C308.807 76.92 309.874 79.9867 312.007 82.28C314.193 84.52 317.047 85.64 320.567 85.64Z" fill="#292840"/>
<path d="M354.304 91H347.904V49.16C347.904 44.2533 348.997 40.5467 351.184 38.04C353.37 35.48 356.49 34.2 360.544 34.2C364.757 34.2 367.957 35.2667 370.144 37.4L367.904 42.28C366.197 40.8933 364.09 40.2 361.584 40.2C356.73 40.2 354.304 43.4267 354.304 49.88V55H366.304V61H354.304V91Z" fill="#292840"/>
<path d="M378.31 91H371.91V55H378.31V59.24C380.443 55.9867 383.457 54.36 387.35 54.36C389.857 54.36 391.723 54.8133 392.95 55.72L390.71 61.72C389.163 60.8133 387.537 60.36 385.83 60.36C382.577 60.36 380.07 62.0667 378.31 65.48V91Z" fill="#292840"/>
<path d="M399.417 62.6L397.737 57.48C401.311 55.2933 405.311 54.2 409.737 54.2C414.591 54.2 418.111 55.4 420.297 57.8C422.484 60.2 423.577 63.9067 423.577 68.92V91H417.497V86.36C414.671 89.8267 410.831 91.56 405.977 91.56C402.671 91.56 400.004 90.5733 397.977 88.6C395.951 86.5733 394.937 83.8533 394.937 80.44C394.937 76.92 396.191 74.1467 398.697 72.12C401.204 70.04 404.484 69 408.537 69C412.324 69 415.311 69.7733 417.497 71.32C417.497 67.2667 416.937 64.36 415.817 62.6C414.697 60.84 412.537 59.96 409.337 59.96C406.084 59.96 402.777 60.84 399.417 62.6ZM408.217 85.8C411.791 85.8 414.884 84.2533 417.497 81.16V76.6C415.257 75 412.564 74.2 409.417 74.2C407.231 74.2 405.391 74.7333 403.897 75.8C402.457 76.8133 401.737 78.2533 401.737 80.12C401.737 81.88 402.297 83.2667 403.417 84.28C404.591 85.2933 406.191 85.8 408.217 85.8Z" fill="#292840"/>
<path d="M486.134 67.4V91H479.734V69.16C479.734 63.2933 477.148 60.36 471.974 60.36C469.894 60.36 468.001 60.84 466.294 61.8C464.641 62.7067 463.388 63.96 462.534 65.56C462.588 65.8267 462.614 66.68 462.614 68.12V91H456.214V67.8C456.214 65.5067 455.521 63.6933 454.134 62.36C452.801 61.0267 450.934 60.36 448.534 60.36C444.534 60.36 441.388 61.9867 439.094 65.24V91H432.694V55H439.094V59.56C440.428 58.0133 442.161 56.76 444.294 55.8C446.481 54.84 448.721 54.36 451.014 54.36C453.734 54.36 456.054 54.92 457.974 56.04C459.894 57.16 461.201 58.68 461.894 60.6C463.228 58.68 465.014 57.16 467.254 56.04C469.494 54.92 471.921 54.36 474.534 54.36C482.268 54.36 486.134 58.7067 486.134 67.4Z" fill="#292840"/>
<path d="M523.713 82.04L525.713 87.08C522.246 90.2267 517.74 91.8 512.193 91.8C506.326 91.8 501.66 90.0933 498.193 86.68C494.673 83.2667 492.913 78.7067 492.913 73C492.913 67.6133 494.566 63.1333 497.873 59.56C501.126 55.9867 505.66 54.2 511.473 54.2C516.273 54.2 520.246 55.7467 523.393 58.84C526.593 61.88 528.193 65.8267 528.193 70.68C528.193 72.2267 528.06 73.6667 527.793 75H500.113C500.38 78.36 501.633 81 503.873 82.92C506.166 84.84 509.1 85.8 512.673 85.8C517.366 85.8 521.046 84.5467 523.713 82.04ZM511.153 60.2C508.006 60.2 505.393 61.08 503.313 62.84C501.286 64.6 500.086 66.92 499.713 69.8H521.553C521.393 66.8133 520.38 64.4667 518.513 62.76C516.7 61.0533 514.246 60.2 511.153 60.2Z" fill="#292840"/>
<defs>
<linearGradient id="paint0_linear_15_20" x1="81.3702" y1="22.6074" x2="40.6153" y2="121.876" gradientUnits="userSpaceOnUse">
<stop offset="0.2682" stop-color="#1072FF"/>
<stop offset="1" stop-color="#6B4DED"/>
</linearGradient>
</defs>
</svg>
