<svg width="1024" height="1024" viewBox="0 0 1024 1024" fill="none" xmlns="http://www.w3.org/2000/svg">
<path d="M893.118 276.728L842.482 249.463L811.322 229.987L784.057 214.407L752.897 194.932L530.88 66.3964C523.09 62.5014 507.51 62.5014 499.72 66.3964C488.035 70.2915 484.14 81.9765 484.14 93.6616V253.358L347.814 175.457C340.024 171.562 328.339 171.562 316.654 175.457C312.759 175.457 308.864 179.352 308.864 183.247C304.969 187.142 301.074 194.932 301.074 202.722V315.678L363.394 350.733V257.253L663.311 432.529V526.009L725.632 561.065V413.054C725.632 401.369 717.842 389.683 710.052 385.788L542.566 288.413V144.297L749.002 265.043L780.162 284.518L807.427 300.098L838.588 319.573H842.482V666.23L168.643 272.833C156.958 268.938 145.273 268.938 137.483 272.833C125.798 276.728 121.903 288.413 121.903 300.098V716.866C121.903 728.551 125.798 736.341 137.483 744.131L499.72 954.462C503.615 958.357 511.405 958.357 515.3 958.357C519.195 958.357 526.985 958.357 530.88 954.462C538.671 950.567 546.461 938.882 546.461 927.197V779.186L678.891 857.087C686.681 860.982 690.577 860.982 694.472 860.982C698.367 860.982 706.157 860.982 710.052 857.087C721.737 853.192 725.632 841.506 725.632 829.821V705.181L663.311 670.125V779.186L363.394 603.91V494.849L301.074 459.794V623.385C301.074 635.07 308.864 642.86 316.654 650.65L484.14 748.026V876.562L184.223 701.286V354.628L861.958 748.026C865.853 751.921 873.643 751.921 877.538 751.921C881.433 751.921 889.223 751.921 893.118 748.026C904.803 744.131 908.698 732.446 908.698 720.761V303.993C908.698 292.308 900.908 284.518 893.118 276.728Z" fill="url(#paint0_linear_15_67)"/>
<defs>
<linearGradient id="paint0_linear_15_67" x1="639.022" y1="209.317" x2="341.002" y2="935.217" gradientUnits="userSpaceOnUse">
<stop offset="0.2682" stop-color="#1072FF"/>
<stop offset="1" stop-color="#6B4DED"/>
</linearGradient>
</defs>
</svg>
