<svg width="620" height="164" viewBox="0 0 620 164" fill="none" xmlns="http://www.w3.org/2000/svg">
<path d="M134.267 49.8667L127.333 46.1333L123.067 43.4667L119.333 41.3333L115.067 38.6667L84.6665 21.0667C83.5998 20.5333 81.4665 20.5333 80.3998 21.0667C78.7998 21.6 78.2665 23.2 78.2665 24.8V46.6667L59.5998 36C58.5332 35.4667 56.9332 35.4667 55.3332 36C54.7998 36 54.2665 36.5333 54.2665 37.0667C53.7332 37.6 53.1998 38.6667 53.1998 39.7333V55.2L61.7332 60V47.2L102.8 71.2V84L111.333 88.8V68.5333C111.333 66.9333 110.266 65.3333 109.2 64.8L86.2665 51.4667V31.7333L114.533 48.2667L118.8 50.9333L122.533 53.0667L126.8 55.7333H127.333V103.2L35.0665 49.3333C33.4665 48.8 31.8665 48.8 30.7998 49.3333C29.1998 49.8667 28.6665 51.4667 28.6665 53.0667V110.133C28.6665 111.733 29.1998 112.8 30.7998 113.867L80.3998 142.667C80.9332 143.2 81.9998 143.2 82.5332 143.2C83.0665 143.2 84.1332 143.2 84.6665 142.667C85.7332 142.133 86.7998 140.533 86.7998 138.933V118.667L104.933 129.333C106 129.867 106.533 129.867 107.067 129.867C107.6 129.867 108.666 129.867 109.2 129.333C110.8 128.8 111.333 127.2 111.333 125.6V108.533L102.8 103.733V118.667L61.7332 94.6667V79.7333L53.1998 74.9333V97.3333C53.1998 98.9333 54.2665 100 55.3332 101.067L78.2665 114.4V132L37.1998 108V60.5333L130 114.4C130.533 114.933 131.6 114.933 132.133 114.933C132.667 114.933 133.733 114.933 134.267 114.4C135.867 113.867 136.4 112.267 136.4 110.667V53.6C136.4 52 135.333 50.9333 134.267 49.8667Z" fill="url(#paint0_linear_37_18)"/>
<path d="M175 87.8333V59.4759H180.615V68.2498H192.197V73.5142H180.615V87.2717C180.615 92.5127 182.487 95.1332 186.231 95.1332C188.056 95.1332 189.717 94.5483 191.214 93.3784L192.969 97.7303C190.77 99.5085 188.079 100.398 184.897 100.398C181.481 100.398 178.978 99.3681 177.387 97.3091C175.796 95.2502 175 92.0915 175 87.8333Z" fill="#292840"/>
<path d="M220.953 68.2498H227.34L214.706 99.836C212.413 105.405 210.424 109.101 208.74 110.926C206.961 112.892 204.926 113.874 202.633 113.874C200.574 113.874 198.585 113.219 196.667 111.909L198.492 107.627C199.989 108.329 201.159 108.68 202.001 108.68C203.312 108.68 204.481 108.119 205.511 106.996C206.587 105.872 207.663 104.048 208.74 101.521L209.442 99.836L194.28 68.2498H201.019L210.284 88.3246C210.471 88.6522 211.103 90.2432 212.179 93.0976C212.6 91.5534 213.092 89.939 213.653 88.2544L220.953 68.2498Z" fill="#292840"/>
<path d="M237.322 113.874H231.707V68.2498H237.322V71.97C238.446 70.6597 239.99 69.6068 241.955 68.8113C243.92 67.969 245.956 67.5479 248.062 67.5479C252.554 67.5479 256.087 69.0453 258.661 72.0402C261.328 74.9882 262.662 78.8253 262.662 83.5516C262.662 88.3714 261.141 92.4191 258.099 95.6947C255.104 98.9235 251.15 100.538 246.237 100.538C242.446 100.538 239.475 99.8126 237.322 98.362V113.874ZM246.447 72.8123C242.704 72.8123 239.662 74.2629 237.322 77.1641V92.8169C239.803 94.4547 242.61 95.2736 245.745 95.2736C249.068 95.2736 251.712 94.2207 253.677 92.1149C255.689 89.9624 256.695 87.1781 256.695 83.7621C256.695 80.4397 255.783 77.7959 253.958 75.8305C252.133 73.8183 249.629 72.8123 246.447 72.8123Z" fill="#292840"/>
<path d="M294.224 91.9746L295.979 96.3966C292.937 99.1575 288.983 100.538 284.117 100.538C278.969 100.538 274.875 99.0405 271.833 96.0457C268.745 93.0508 267.2 89.0499 267.2 84.0429C267.2 79.3167 268.651 75.386 271.552 72.2507C274.407 69.1155 278.384 67.5479 283.485 67.5479C287.696 67.5479 291.183 68.9049 293.943 71.619C296.751 74.2863 298.155 77.7491 298.155 82.0074C298.155 83.3644 298.038 84.6278 297.804 85.7977H273.518C273.752 88.7457 274.851 91.0621 276.817 92.7467C278.829 94.4313 281.403 95.2736 284.538 95.2736C288.656 95.2736 291.885 94.1739 294.224 91.9746ZM283.204 72.8123C280.443 72.8123 278.15 73.5844 276.325 75.1286C274.547 76.6728 273.494 78.7084 273.167 81.2353H292.329C292.189 78.6148 291.3 76.5558 289.662 75.0584C288.071 73.561 285.918 72.8123 283.204 72.8123Z" fill="#292840"/>
<path d="M333.148 99.836H327.532V95.8351C324.725 98.8767 321.379 100.398 317.495 100.398C312.862 100.398 309.166 98.9235 306.405 95.9755C303.644 92.9806 302.263 89.0733 302.263 84.2535C302.263 79.3401 303.878 75.3392 307.107 72.2507C310.382 69.1155 314.523 67.5479 319.53 67.5479C322.713 67.5479 325.38 68.2966 327.532 69.794V50.7019H333.148V99.836ZM318.548 95.1332C322.011 95.1332 325.005 93.7293 327.532 90.9217V75.269C324.912 73.6312 322.315 72.8123 319.741 72.8123C316.512 72.8123 313.775 73.8651 311.529 75.9709C309.329 78.0298 308.23 80.7439 308.23 84.1131C308.23 87.4823 309.166 90.173 311.037 92.1851C312.956 94.1505 315.459 95.1332 318.548 95.1332Z" fill="#292840"/>
<path d="M348.148 99.836H342.533V63.1258C342.533 58.8207 343.492 55.5685 345.411 53.3692C347.329 51.1231 350.067 50 353.623 50C357.32 50 360.128 50.9359 362.046 52.8077L360.081 57.0894C358.583 55.8727 356.735 55.2644 354.536 55.2644C350.277 55.2644 348.148 58.0954 348.148 63.7576V68.2498H358.677V73.5142H348.148V99.836Z" fill="#292840"/>
<path d="M369.211 99.836H363.596V68.2498H369.211V71.97C371.083 69.1155 373.727 67.6883 377.143 67.6883C379.342 67.6883 380.98 68.086 382.056 68.8815L380.091 74.1459C378.734 73.3504 377.307 72.9526 375.809 72.9526C372.955 72.9526 370.756 74.4501 369.211 77.4449V99.836Z" fill="#292840"/>
<path d="M387.731 74.918L386.257 70.4257C389.392 68.5072 392.902 67.5479 396.786 67.5479C401.044 67.5479 404.132 68.6008 406.051 70.7065C407.97 72.8123 408.929 76.0645 408.929 80.4631V99.836H403.594V95.7649C401.114 98.8065 397.745 100.327 393.487 100.327C390.585 100.327 388.246 99.4617 386.467 97.7303C384.689 95.9521 383.8 93.5656 383.8 90.5707C383.8 87.4823 384.9 85.049 387.099 83.2708C389.299 81.4458 392.176 80.5333 395.733 80.5333C399.055 80.5333 401.676 81.2119 403.594 82.5689C403.594 79.0125 403.103 76.4622 402.12 74.918C401.138 73.3738 399.242 72.6017 396.435 72.6017C393.58 72.6017 390.679 73.3738 387.731 74.918ZM395.452 95.2736C398.587 95.2736 401.301 93.9165 403.594 91.2025V87.2015C401.629 85.7977 399.266 85.0958 396.505 85.0958C394.586 85.0958 392.972 85.5637 391.662 86.4996C390.398 87.3887 389.766 88.6522 389.766 90.29C389.766 91.8342 390.258 93.0508 391.241 93.9399C392.27 94.829 393.674 95.2736 395.452 95.2736Z" fill="#292840"/>
<path d="M463.816 79.1295V99.836H458.201V80.6737C458.201 75.5263 455.931 72.9526 451.392 72.9526C449.567 72.9526 447.906 73.3738 446.408 74.2161C444.958 75.0116 443.858 76.1113 443.109 77.5151C443.156 77.7491 443.18 78.4978 443.18 79.7612V99.836H437.564V79.4805C437.564 77.4683 436.956 75.8773 435.739 74.7074C434.569 73.5376 432.932 72.9526 430.826 72.9526C427.316 72.9526 424.555 74.3799 422.543 77.2343V99.836H416.928V68.2498H422.543V72.2507C423.713 70.8937 425.234 69.794 427.106 68.9517C429.024 68.1094 430.99 67.6883 433.002 67.6883C435.388 67.6883 437.424 68.1796 439.108 69.1623C440.793 70.145 441.939 71.4786 442.548 73.1632C443.718 71.4786 445.285 70.145 447.251 69.1623C449.216 68.1796 451.345 67.6883 453.638 67.6883C460.423 67.6883 463.816 71.502 463.816 79.1295Z" fill="#292840"/>
<path d="M496.787 91.9746L498.542 96.3966C495.5 99.1575 491.546 100.538 486.68 100.538C481.532 100.538 477.438 99.0405 474.396 96.0457C471.308 93.0508 469.763 89.0499 469.763 84.0429C469.763 79.3167 471.214 75.386 474.115 72.2507C476.97 69.1155 480.947 67.5479 486.048 67.5479C490.259 67.5479 493.746 68.9049 496.506 71.619C499.314 74.2863 500.718 77.7491 500.718 82.0074C500.718 83.3644 500.601 84.6278 500.367 85.7977H476.081C476.315 88.7457 477.414 91.0621 479.38 92.7467C481.392 94.4313 483.966 95.2736 487.101 95.2736C491.219 95.2736 494.448 94.1739 496.787 91.9746ZM485.767 72.8123C483.006 72.8123 480.713 73.5844 478.888 75.1286C477.11 76.6728 476.057 78.7084 475.73 81.2353H494.892C494.752 78.6148 493.863 76.5558 492.225 75.0584C490.634 73.561 488.481 72.8123 485.767 72.8123Z" fill="#292840"/>
<defs>
<linearGradient id="paint0_linear_37_18" x1="99.474" y1="40.6363" x2="58.667" y2="140.031" gradientUnits="userSpaceOnUse">
<stop offset="0.2682" stop-color="#8C8C8C"/>
<stop offset="1" stop-color="#4A4A4A"/>
</linearGradient>
</defs>
</svg>
