<svg width="620" height="164" viewBox="0 0 620 164" fill="none" xmlns="http://www.w3.org/2000/svg">
<path d="M134.267 49.8667L127.333 46.1333L123.067 43.4666L119.333 41.3333L115.067 38.6667L84.6665 21.0667C83.5998 20.5333 81.4665 20.5333 80.3998 21.0667C78.7998 21.6 78.2665 23.2 78.2665 24.8V46.6666L59.5998 36C58.5332 35.4667 56.9332 35.4667 55.3332 36C54.7998 36 54.2665 36.5333 54.2665 37.0667C53.7332 37.6 53.1998 38.6667 53.1998 39.7333V55.2L61.7332 60V47.2L102.8 71.2V84L111.333 88.8V68.5333C111.333 66.9333 110.266 65.3333 109.2 64.8L86.2665 51.4666V31.7333L114.533 48.2667L118.8 50.9333L122.533 53.0667L126.8 55.7333H127.333V103.2L35.0665 49.3333C33.4665 48.8 31.8665 48.8 30.7998 49.3333C29.1998 49.8666 28.6665 51.4667 28.6665 53.0667V110.133C28.6665 111.733 29.1998 112.8 30.7998 113.867L80.3998 142.667C80.9332 143.2 81.9998 143.2 82.5332 143.2C83.0665 143.2 84.1332 143.2 84.6665 142.667C85.7332 142.133 86.7998 140.533 86.7998 138.933V118.667L104.933 129.333C106 129.867 106.533 129.867 107.067 129.867C107.6 129.867 108.666 129.867 109.2 129.333C110.8 128.8 111.333 127.2 111.333 125.6V108.533L102.8 103.733V118.667L61.7332 94.6666V79.7333L53.1998 74.9333V97.3333C53.1998 98.9333 54.2665 100 55.3332 101.067L78.2665 114.4V132L37.1998 108V60.5333L130 114.4C130.533 114.933 131.6 114.933 132.133 114.933C132.667 114.933 133.733 114.933 134.267 114.4C135.867 113.867 136.4 112.267 136.4 110.667V53.6C136.4 52 135.333 50.9333 134.267 49.8667Z" fill="url(#paint0_linear_37_2)"/>
<path d="M134.267 49.8667L127.333 46.1333L123.067 43.4666L119.333 41.3333L115.067 38.6667L84.6665 21.0667C83.5998 20.5333 81.4665 20.5333 80.3998 21.0667C78.7998 21.6 78.2665 23.2 78.2665 24.8V46.6666L59.5998 36C58.5332 35.4667 56.9332 35.4667 55.3332 36C54.7998 36 54.2665 36.5333 54.2665 37.0667C53.7332 37.6 53.1998 38.6667 53.1998 39.7333V55.2L61.7332 60V47.2L102.8 71.2V84L111.333 88.8V68.5333C111.333 66.9333 110.266 65.3333 109.2 64.8L86.2665 51.4666V31.7333L114.533 48.2667L118.8 50.9333L122.533 53.0667L126.8 55.7333H127.333V103.2L35.0665 49.3333C33.4665 48.8 31.8665 48.8 30.7998 49.3333C29.1998 49.8666 28.6665 51.4667 28.6665 53.0667V110.133C28.6665 111.733 29.1998 112.8 30.7998 113.867L80.3998 142.667C80.9332 143.2 81.9998 143.2 82.5332 143.2C83.0665 143.2 84.1332 143.2 84.6665 142.667C85.7332 142.133 86.7998 140.533 86.7998 138.933V118.667L104.933 129.333C106 129.867 106.533 129.867 107.067 129.867C107.6 129.867 108.666 129.867 109.2 129.333C110.8 128.8 111.333 127.2 111.333 125.6V108.533L102.8 103.733V118.667L61.7332 94.6666V79.7333L53.1998 74.9333V97.3333C53.1998 98.9333 54.2665 100 55.3332 101.067L78.2665 114.4V132L37.1998 108V60.5333L130 114.4C130.533 114.933 131.6 114.933 132.133 114.933C132.667 114.933 133.733 114.933 134.267 114.4C135.867 113.867 136.4 112.267 136.4 110.667V53.6C136.4 52 135.333 50.9333 134.267 49.8667Z" fill="white" fill-opacity="0.3"/>
<path d="M169 87.8333V59.4759H174.615V68.2498H186.197V73.5142H174.615V87.2717C174.615 92.5127 176.487 95.1332 180.231 95.1332C182.056 95.1332 183.717 94.5483 185.214 93.3784L186.969 97.7303C184.77 99.5085 182.079 100.398 178.897 100.398C175.481 100.398 172.978 99.3681 171.387 97.3091C169.796 95.2502 169 92.0915 169 87.8333Z" fill="white"/>
<path d="M214.953 68.2498H221.34L208.706 99.836C206.413 105.405 204.424 109.101 202.74 110.926C200.961 112.892 198.926 113.874 196.633 113.874C194.574 113.874 192.585 113.219 190.667 111.909L192.492 107.627C193.989 108.329 195.159 108.68 196.001 108.68C197.312 108.68 198.481 108.119 199.511 106.996C200.587 105.872 201.663 104.048 202.74 101.521L203.442 99.836L188.28 68.2498H195.019L204.284 88.3246C204.471 88.6522 205.103 90.2432 206.179 93.0976C206.6 91.5534 207.092 89.939 207.653 88.2544L214.953 68.2498Z" fill="white"/>
<path d="M231.322 113.874H225.707V68.2498H231.322V71.97C232.446 70.6597 233.99 69.6068 235.955 68.8113C237.92 67.969 239.956 67.5479 242.062 67.5479C246.554 67.5479 250.087 69.0453 252.661 72.0402C255.328 74.9882 256.662 78.8253 256.662 83.5516C256.662 88.3714 255.141 92.4191 252.099 95.6947C249.104 98.9235 245.15 100.538 240.237 100.538C236.446 100.538 233.475 99.8126 231.322 98.362V113.874ZM240.447 72.8123C236.704 72.8123 233.662 74.2629 231.322 77.1641V92.8169C233.803 94.4547 236.61 95.2736 239.745 95.2736C243.068 95.2736 245.712 94.2207 247.677 92.1149C249.689 89.9624 250.695 87.1781 250.695 83.7621C250.695 80.4397 249.783 77.7959 247.958 75.8305C246.133 73.8183 243.629 72.8123 240.447 72.8123Z" fill="white"/>
<path d="M288.224 91.9746L289.979 96.3966C286.937 99.1575 282.983 100.538 278.117 100.538C272.969 100.538 268.875 99.0405 265.833 96.0457C262.745 93.0508 261.2 89.0499 261.2 84.0429C261.2 79.3167 262.651 75.386 265.552 72.2507C268.407 69.1155 272.384 67.5479 277.485 67.5479C281.696 67.5479 285.183 68.9049 287.943 71.619C290.751 74.2863 292.155 77.7491 292.155 82.0074C292.155 83.3644 292.038 84.6278 291.804 85.7977H267.518C267.752 88.7457 268.851 91.0621 270.817 92.7467C272.829 94.4313 275.403 95.2736 278.538 95.2736C282.656 95.2736 285.885 94.1739 288.224 91.9746ZM277.204 72.8123C274.443 72.8123 272.15 73.5844 270.325 75.1286C268.547 76.6728 267.494 78.7084 267.167 81.2353H286.329C286.189 78.6148 285.3 76.5558 283.662 75.0584C282.071 73.561 279.918 72.8123 277.204 72.8123Z" fill="white"/>
<path d="M327.148 99.836H321.532V95.8351C318.725 98.8767 315.379 100.398 311.495 100.398C306.862 100.398 303.166 98.9235 300.405 95.9755C297.644 92.9806 296.263 89.0733 296.263 84.2535C296.263 79.3401 297.878 75.3392 301.107 72.2507C304.382 69.1155 308.523 67.5479 313.53 67.5479C316.713 67.5479 319.38 68.2966 321.532 69.794V50.7019H327.148V99.836ZM312.548 95.1332C316.011 95.1332 319.005 93.7293 321.532 90.9217V75.269C318.912 73.6312 316.315 72.8123 313.741 72.8123C310.512 72.8123 307.775 73.8651 305.529 75.9709C303.329 78.0298 302.23 80.7439 302.23 84.1131C302.23 87.4823 303.166 90.173 305.037 92.1851C306.956 94.1505 309.459 95.1332 312.548 95.1332Z" fill="white"/>
<path d="M342.148 99.836H336.533V63.1258C336.533 58.8207 337.492 55.5685 339.411 53.3692C341.329 51.1231 344.067 50 347.623 50C351.32 50 354.128 50.9359 356.046 52.8077L354.081 57.0894C352.583 55.8727 350.735 55.2644 348.536 55.2644C344.277 55.2644 342.148 58.0954 342.148 63.7576V68.2498H352.677V73.5142H342.148V99.836Z" fill="white"/>
<path d="M363.211 99.836H357.596V68.2498H363.211V71.97C365.083 69.1155 367.727 67.6883 371.143 67.6883C373.342 67.6883 374.98 68.086 376.056 68.8815L374.091 74.1459C372.734 73.3504 371.307 72.9526 369.809 72.9526C366.955 72.9526 364.756 74.4501 363.211 77.4449V99.836Z" fill="white"/>
<path d="M381.731 74.918L380.257 70.4257C383.392 68.5072 386.902 67.5479 390.786 67.5479C395.044 67.5479 398.132 68.6008 400.051 70.7065C401.97 72.8123 402.929 76.0645 402.929 80.4631V99.836H397.594V95.7649C395.114 98.8065 391.745 100.327 387.487 100.327C384.585 100.327 382.246 99.4617 380.467 97.7303C378.689 95.9521 377.8 93.5656 377.8 90.5707C377.8 87.4823 378.9 85.049 381.099 83.2708C383.299 81.4458 386.176 80.5333 389.733 80.5333C393.055 80.5333 395.676 81.2119 397.594 82.5689C397.594 79.0125 397.103 76.4622 396.12 74.918C395.138 73.3738 393.242 72.6017 390.435 72.6017C387.58 72.6017 384.679 73.3738 381.731 74.918ZM389.452 95.2736C392.587 95.2736 395.301 93.9165 397.594 91.2025V87.2015C395.629 85.7977 393.266 85.0958 390.505 85.0958C388.586 85.0958 386.972 85.5637 385.662 86.4996C384.398 87.3887 383.766 88.6522 383.766 90.29C383.766 91.8342 384.258 93.0508 385.241 93.9399C386.27 94.829 387.674 95.2736 389.452 95.2736Z" fill="white"/>
<path d="M457.816 79.1295V99.836H452.201V80.6737C452.201 75.5263 449.931 72.9526 445.392 72.9526C443.567 72.9526 441.906 73.3738 440.408 74.2161C438.958 75.0116 437.858 76.1113 437.109 77.5151C437.156 77.7491 437.18 78.4978 437.18 79.7612V99.836H431.564V79.4805C431.564 77.4683 430.956 75.8773 429.739 74.7074C428.569 73.5376 426.932 72.9526 424.826 72.9526C421.316 72.9526 418.555 74.3799 416.543 77.2343V99.836H410.928V68.2498H416.543V72.2507C417.713 70.8937 419.234 69.794 421.106 68.9517C423.024 68.1094 424.99 67.6883 427.002 67.6883C429.388 67.6883 431.424 68.1796 433.108 69.1623C434.793 70.145 435.939 71.4786 436.548 73.1632C437.718 71.4786 439.285 70.145 441.251 69.1623C443.216 68.1796 445.345 67.6883 447.638 67.6883C454.423 67.6883 457.816 71.502 457.816 79.1295Z" fill="white"/>
<path d="M490.787 91.9746L492.542 96.3966C489.5 99.1575 485.546 100.538 480.68 100.538C475.532 100.538 471.438 99.0405 468.396 96.0457C465.308 93.0508 463.763 89.0499 463.763 84.0429C463.763 79.3167 465.214 75.386 468.115 72.2507C470.97 69.1155 474.947 67.5479 480.048 67.5479C484.259 67.5479 487.746 68.9049 490.506 71.619C493.314 74.2863 494.718 77.7491 494.718 82.0074C494.718 83.3644 494.601 84.6278 494.367 85.7977H470.081C470.315 88.7457 471.414 91.0621 473.38 92.7467C475.392 94.4313 477.966 95.2736 481.101 95.2736C485.219 95.2736 488.448 94.1739 490.787 91.9746ZM479.767 72.8123C477.006 72.8123 474.713 73.5844 472.888 75.1286C471.11 76.6728 470.057 78.7084 469.73 81.2353H488.892C488.752 78.6148 487.863 76.5558 486.225 75.0584C484.634 73.561 482.481 72.8123 479.767 72.8123Z" fill="white"/>
<defs>
<linearGradient id="paint0_linear_37_2" x1="99.474" y1="40.6363" x2="58.667" y2="140.031" gradientUnits="userSpaceOnUse">
<stop offset="0.2682" stop-color="#1072FF"/>
<stop offset="1" stop-color="#6B4DED"/>
</linearGradient>
</defs>
</svg>
